# xmcd
#
# Track frame offsets:
#	150
#	17070
#	31928
#	47397
#	65616
#	81270
#	95835
#	108462
#	128331
#	145673
#	163940
#	176495
#	190717
#	206818
#	220814
#	235445
#	249345
#	267501
#	280878
#	294411
#
# Disc length: 4172 seconds
# Revision: 0
# Processed by: cddbd v1.5.2PL0 Copyright (c) Steve Scherf et al.
# Submitted via: dBpowerAMP V12.0
#
DISCID=24104a14
DTITLE=木村好夫 - 木村好夫 魅惑の昭和歌謡集 Disc3
DYEAR=2012
DGENRE=Japanese Blues
TTITLE0=釜山プサン港へ帰れ
TTITLE1=夫婦坂
TTITLE2=長良川艶歌
TTITLE3=つぐない
TTITLE4=浪花節だよ人生は
TTITLE5=娘よ
TTITLE6=津軽平野
TTITLE7=熱き心に
TTITLE8=愛人
TTITLE9=ホテル
TTITLE10=そして・・・めぐり逢い
TTITLE11=道頓堀人情
TTITLE12=北の漁場
TTITLE13=雪國
TTITLE14=無錫旅情
TTITLE15=命くれない
TTITLE16=時の流れに身をまかせ
TTITLE17=みだれ髪
TTITLE18=人生いろいろ
TTITLE19=酒よ
EXTD=
EXTT0=
EXTT1=
EXTT2=
EXTT3=
EXTT4=
EXTT5=
EXTT6=
EXTT7=
EXTT8=
EXTT9=
EXTT10=
EXTT11=
EXTT12=
EXTT13=
EXTT14=
EXTT15=
EXTT16=
EXTT17=
EXTT18=
EXTT19=
PLAYORDER=
